<?xml version="1.0" standalone="no"?>
<!DOCTYPE svg PUBLIC "-//W3C//DTD SVG 20010904//EN"
 "http://www.w3.org/TR/2001/REC-SVG-20010904/DTD/svg10.dtd">
<svg version="1.0" xmlns="http://www.w3.org/2000/svg"
 width="300.000000pt" height="300.000000pt" viewBox="0 0 300.000000 300.000000"
 preserveAspectRatio="xMidYMid meet">
<metadata>
Created by potrace 1.11, written by Peter Selinger 2001-2013
</metadata>
<g transform="translate(0.000000,300.000000) scale(0.100000,-0.100000)"
fill="#000000" stroke="none">
<path d="M0 1500 l0 -1500 609 0 610 0 3 23 c2 17 11 23 43 27 46 6 47 17 9
67 l-24 32 53 45 c65 56 99 69 151 60 44 -7 44 -6 -7 52 -20 24 -24 57 -12
123 6 36 19 56 81 118 l74 75 45 -47 c26 -26 48 -45 51 -42 2 2 7 44 10 92 6
93 31 165 59 165 16 0 39 -73 32 -100 -3 -13 8 -23 42 -39 32 -16 57 -38 82
-74 46 -66 59 -106 59 -176 l0 -56 43 47 c32 35 55 50 97 62 94 27 213 1 194
-42 -3 -9 -9 -28 -12 -41 -4 -20 -2 -23 12 -18 9 4 29 4 45 1 23 -5 34 -16 50
-54 30 -69 27 -109 -10 -156 l-30 -39 33 -8 c18 -4 43 -13 55 -19 23 -11 23
-11 -12 -35 -19 -13 -35 -28 -35 -33 0 -6 114 -10 300 -10 l300 0 0 1500 0
1500 -1119 0 -1118 0 4 -67 c4 -52 1 -73 -11 -88 -12 -15 -15 -16 -16 -5 -1
35 -22 91 -33 87 -7 -2 -20 0 -30 5 -14 7 -17 16 -12 39 l7 29 -336 0 -336 0
0 -1500z m2520 1320 c0 -23 -25 -27 -33 -6 -7 16 1 26 20 26 7 0 13 -9 13 -20z
m-1255 -70 c0 -30 -26 -38 -49 -14 -13 13 -14 19 -5 31 20 23 54 12 54 -17z
m1385 -36 c6 -14 17 -72 25 -128 21 -145 22 -148 44 -141 11 3 37 -2 59 -11
33 -13 44 -24 57 -58 29 -76 9 -134 -76 -216 -31 -30 -59 -62 -63 -70 -3 -8
-4 -5 -2 7 2 13 1 25 -4 28 -4 3 -10 -11 -12 -30 -2 -19 0 -36 4 -37 5 -2 11
-21 13 -43 3 -22 10 -41 15 -43 6 -2 10 -16 10 -31 0 -16 3 -49 6 -75 7 -46 7
-46 45 -46 47 0 72 -31 67 -81 -3 -30 -8 -35 -50 -50 -27 -9 -45 -13 -42 -7 4
6 -2 5 -14 -1 -11 -6 -21 -19 -21 -29 1 -9 -7 -37 -16 -62 -10 -25 -18 -75
-20 -111 -1 -36 -4 -70 -8 -76 -4 -6 0 -13 8 -17 9 -3 12 -12 8 -22 -4 -12 -3
-15 5 -10 19 12 76 -12 110 -45 27 -27 32 -38 30 -75 0 -24 -4 -44 -8 -44 -3
0 10 -34 31 -74 47 -94 56 -157 35 -255 -16 -77 -59 -178 -95 -221 l-21 -25 0
23 c0 63 -119 226 -140 192 -17 -26 -32 -122 -27 -163 l5 -39 -22 21 c-12 12
-27 21 -33 21 -16 0 -24 28 -10 33 7 3 3 5 -8 6 -59 2 -88 15 -115 53 -16 22
-35 56 -41 76 -14 41 -18 192 -7 234 7 22 5 26 -10 23 -9 -1 -16 -8 -14 -16 2
-9 0 -10 -10 -2 -9 8 -22 8 -45 -2 -34 -14 -37 -21 -34 -88 1 -21 -2 -36 -7
-33 -15 9 -5 -70 18 -139 29 -87 24 -170 -15 -235 l-26 -45 3 55 c3 77 -19 79
-65 7 -20 -30 -39 -57 -44 -60 -14 -9 -202 178 -214 213 -7 18 -18 30 -29 30
-10 0 -24 7 -31 16 -11 14 -10 19 8 33 17 14 21 29 22 89 1 49 -2 72 -10 72
-7 0 -31 -18 -55 -40 -24 -22 -52 -40 -62 -40 -10 0 -22 -3 -25 -6 -10 -11
-67 -13 -61 -3 8 13 -8 10 -28 -5 -12 -9 -14 -16 -7 -23 8 -8 7 -13 -3 -18 -7
-5 -10 -5 -6 0 4 4 -3 16 -15 27 -14 13 -16 18 -6 15 9 -3 22 -1 30 5 11 8 10
9 -3 4 -11 -3 -27 4 -42 19 -14 14 -33 25 -43 25 -10 0 -38 -23 -63 -51 l-46
-52 -69 12 c-84 15 -150 42 -188 79 -42 39 -94 140 -102 195 -8 55 -28 62 -65
22 -19 -21 -67 -43 -128 -61 -11 -3 -10 -8 2 -26 9 -12 16 -26 16 -30 0 -23
-160 4 -199 34 -13 10 -29 18 -36 18 -7 0 -43 29 -80 64 l-68 63 5 69 c3 38 7
76 9 84 3 12 -11 16 -76 20 l-80 5 -17 75 c-30 138 -22 190 43 263 42 48 70
63 162 87 69 17 70 18 39 25 -55 13 -126 86 -156 161 -35 87 -47 258 -23 317
l16 37 70 0 70 0 3 72 3 73 40 13 c23 8 81 14 136 13 87 0 105 -3 185 -36 102
-41 143 -72 173 -132 12 -24 22 -43 24 -43 1 0 2 19 2 43 1 49 53 161 93 200
42 40 230 99 320 101 66 1 76 -1 93 -23 10 -13 19 -33 19 -45 0 -40 17 -45 83
-24 33 10 67 16 74 14 7 -3 36 -54 64 -113 47 -97 53 -105 62 -85 7 16 17 22
29 19 10 -3 18 -1 18 4 0 5 10 8 23 6 18 -2 22 3 20 21 -6 49 56 132 98 132
19 0 92 -77 85 -89 -3 -4 5 -13 19 -19 19 -9 31 -7 60 7 20 10 35 21 33 25 -2
4 20 19 47 34 28 15 52 30 55 34 3 3 22 6 43 6 32 0 40 -4 49 -26 6 -15 10
-36 10 -46 -1 -22 36 -78 47 -72 4 3 8 -1 8 -9 0 -8 -4 -15 -8 -15 -16 0 -19
-53 -4 -83 23 -47 1 -177 -30 -177 -7 0 -16 -7 -19 -16 -4 -9 -12 -14 -21 -10
-8 3 -22 9 -30 12 -17 7 -9 -27 26 -112 21 -51 22 -54 6 -141 -24 -129 -100
-315 -166 -403 -91 -122 -240 -281 -336 -356 l-39 -32 42 -21 c51 -26 63 -26
94 -1 14 10 28 16 32 13 3 -3 6 -2 6 4 0 19 69 81 98 88 41 9 79 50 63 69 -9
11 -1 28 43 87 30 40 76 110 102 156 29 53 56 88 73 96 16 7 40 38 63 82 49
91 48 101 -2 75 -42 -22 -46 -18 -29 27 6 15 24 80 40 143 27 103 31 141 40
355 10 228 8 380 -7 453 -8 38 3 43 16 6z m-2532 -662 c2 -7 -1 -12 -8 -12 -6
0 -9 4 -6 9 4 5 1 12 -4 14 -6 3 -5 4 2 3 6 -1 14 -8 16 -14z m42 -7 c7 -8 10
-22 6 -30 -3 -8 -1 -15 5 -15 6 0 8 -4 4 -9 -3 -6 3 -18 14 -28 24 -22 37 -68
22 -77 -6 -4 -11 -1 -12 6 0 7 -4 4 -8 -7 -7 -18 -9 -17 -25 13 -18 35 -29 43
-20 15 5 -15 4 -15 -4 -4 -7 10 -7 21 0 35 6 12 7 18 3 13 -5 -4 -14 9 -21 29
-10 28 -10 41 -1 55 14 23 21 24 37 4z m2645 -575 c0 -22 -29 -18 -33 3 -3 14
1 18 15 15 10 -2 18 -10 18 -18z m-2707 -43 c22 -20 58 -77 48 -77 -18 0 -86
38 -110 61 -37 36 -30 64 11 48 15 -6 39 -20 51 -32z m62 -191 c0 -4 -7 -6
-16 -6 -8 0 -13 4 -10 9 3 5 -1 11 -8 14 -8 3 -17 3 -19 -1 -2 -4 -2 -1 0 7 2
7 -2 21 -9 29 -10 12 -10 14 0 8 7 -4 12 -2 12 6 0 7 11 -4 25 -24 14 -20 25
-39 25 -42z m640 -390 c67 -16 202 -72 231 -95 25 -20 59 -119 59 -173 l0 -37
-32 11 c-70 22 -167 41 -182 35 -15 -6 -15 -9 0 -39 9 -18 35 -53 56 -78 39
-44 36 -70 -3 -34 -24 22 -98 22 -114 1 -5 -7 -18 -16 -28 -20 -9 -3 -16 -12
-15 -18 2 -6 -10 -15 -25 -20 -23 -6 -38 -2 -75 21 -55 34 -148 149 -199 244
-20 39 -49 91 -65 115 -45 72 -42 76 60 77 48 1 119 6 157 12 99 13 113 13
175 -2z m-5 -482 c-9 -9 -18 -14 -21 -11 -9 9 6 27 22 27 13 0 13 -2 -1 -16z
m-95 -158 c0 -8 -4 -17 -9 -21 -12 -7 -24 12 -16 25 9 15 25 12 25 -4z"/>
<path d="M1286 2341 c-8 -13 3 -38 19 -45 21 -8 56 -114 62 -187 6 -70 -3
-143 -16 -135 -4 3 -22 -10 -39 -29 -16 -19 -35 -35 -41 -35 -6 0 -15 19 -21
43 -6 23 -18 62 -25 87 l-15 45 5 -58 c4 -56 3 -58 -14 -43 -10 9 -26 34 -36
56 -12 26 -25 40 -37 40 -24 0 -24 -35 1 -52 11 -8 25 -26 32 -42 11 -24 10
-33 -11 -72 -14 -24 -31 -45 -40 -46 -49 -4 -54 -2 -62 30 -7 25 -14 32 -33
32 -38 0 -32 -31 15 -81 22 -24 41 -47 41 -51 1 -4 2 -12 3 -18 0 -5 10 -16
21 -25 l20 -17 -20 7 c-28 10 -165 19 -165 11 0 -4 32 -22 72 -41 40 -19 68
-35 62 -35 -5 0 -10 -31 -11 -70 l-2 -70 35 -23 36 -22 -5 -70 c-4 -66 -4 -68
12 -48 9 12 27 40 40 62 29 48 60 61 53 22 l-4 -26 26 28 c15 15 30 27 34 28
43 5 53 5 64 -2 6 -4 28 -1 47 8 61 26 98 27 127 4 15 -12 34 -21 43 -21 10 0
54 -18 99 -40 45 -21 82 -36 82 -32 0 4 -23 26 -50 50 -32 28 -50 51 -50 65 0
13 -7 33 -16 45 -32 46 -33 92 -5 128 29 37 27 72 -4 84 -14 5 -33 7 -42 3
-10 -4 4 17 31 46 26 29 46 55 43 58 -4 3 -37 -17 -74 -44 -37 -27 -73 -52
-80 -56 -24 -15 -21 11 8 54 16 24 40 80 54 124 14 44 30 94 35 111 13 39 13
64 1 64 -17 0 -26 -24 -27 -70 -1 -48 -19 -91 -54 -128 -32 -34 -46 -14 -60
83 -6 44 -15 84 -21 90 -8 7 -10 -3 -5 -36 4 -25 2 -56 -3 -70 -9 -23 -10 -22
-11 11 -1 59 -29 172 -55 226 -14 28 -25 60 -25 71 0 12 -7 24 -16 27 -20 8
-22 8 -28 -3z m-196 -722 c0 -6 -4 -7 -10 -4 -5 3 -10 11 -10 16 0 6 5 7 10 4
6 -3 10 -11 10 -16z"/>
<path d="M2672 2030 c0 -14 2 -19 5 -12 2 6 2 18 0 25 -3 6 -5 1 -5 -13z"/>
<path d="M141 2031 c-10 -6 -10 -10 -1 -16 13 -8 24 -1 19 14 -3 6 -10 7 -18
2z"/>
<path d="M116 1277 c3 -10 9 -15 12 -12 3 3 0 11 -7 18 -10 9 -11 8 -5 -6z"/>
<path d="M780 636 c0 -11 7 -13 33 -6 17 5 43 11 57 13 14 2 -1 5 -32 6 -44 1
-58 -2 -58 -13z"/>
<path d="M1721 270 c4 -80 -4 -92 -58 -83 -19 3 -33 1 -33 -5 0 -5 -9 -8 -20
-5 -26 7 -25 0 4 -44 31 -45 24 -63 -24 -63 -36 0 -38 -2 -35 -27 2 -16 4 -31
4 -35 1 -5 175 -7 389 -6 213 1 370 3 350 5 -25 3 -38 9 -38 19 0 8 6 14 13
14 20 1 -95 40 -118 40 -13 0 -28 14 -43 40 -13 24 -28 38 -34 34 -6 -4 -8 -3
-5 3 9 14 -40 46 -55 37 -7 -4 -8 -3 -4 4 4 8 -3 16 -18 22 -28 10 -34 25 -13
33 10 4 10 6 0 6 -8 1 -14 17 -14 44 -1 28 -3 33 -6 15 -4 -27 -24 -51 -82
-102 l-33 -28 -27 19 c-14 11 -34 22 -43 26 -22 8 -34 53 -19 70 12 15 -4 37
-27 37 -11 0 -13 -15 -11 -70z"/>
</g>
</svg>
